<svg version="1.0" xmlns="http://www.w3.org/2000/svg"
 width="859.260276" height="196.342803" viewBox="0 0 859.260276 196.342803">
<g transform="translate(-23.621706,235.741799) scale(0.100000,-0.100000)"
fill="currentColor" stroke="none">
<path d="M1103 2346 c-104 -34 -204 -123 -251 -224 -24 -51 -28 -72 -32 -197
l-5 -140 -140 -5 c-134 -5 -144 -7 -207 -38 -254 -125 -311 -451 -114 -648 91
-91 190 -124 366 -124 l98 0 4 -142 c3 -134 5 -147 33 -203 16 -33 52 -83 79
-111 161 -160 411 -160 572 0 91 91 124 188 124 362 l0 94 94 0 c119 0 186 13
262 50 151 74 243 252 216 417 -23 137 -105 247 -230 306 -63 30 -74 32 -204
35 l-138 4 0 96 c-1 231 -74 368 -238 445 -57 27 -80 32 -157 34 -57 2 -106
-2 -132 -11z m256 -132 c29 -15 68 -46 87 -68 52 -61 63 -109 66 -301 l3 -170
185 -5 c176 -5 187 -7 236 -32 215 -113 208 -420 -11 -524 l-50 -24 -472 0
-473 0 0 463 c1 363 4 470 14 500 30 84 98 151 183 183 62 23 168 13 232 -22z
m-549 -834 c0 -225 -3 -290 -12 -291 -7 0 -62 0 -123 1 -95 1 -117 4 -162 26
-169 81 -215 296 -98 450 57 74 135 103 283 104 l112 0 0 -290z m701 -422 c1
-7 1 -62 0 -123 -2 -94 -5 -117 -27 -162 -50 -103 -147 -164 -264 -164 -114
-1 -209 57 -260 158 -22 42 -25 63 -28 176 l-4 127 291 0 c226 0 291 -3 292
-12z"/>
<path d="M2575 1747 c-3 -6 -4 -179 -3 -382 l3 -370 389 -3 c279 -1 393 1 402
9 16 13 18 82 4 110 -10 18 -24 19 -310 19 l-300 0 0 303 c0 222 -3 306 -12
315 -17 17 -167 16 -173 -1z"/>
<path d="M3695 1591 c-77 -22 -116 -43 -166 -88 -95 -86 -122 -221 -66 -335
33 -68 80 -111 162 -150 179 -83 430 -51 553 72 57 57 76 102 80 193 4 68 1
84 -23 132 -43 89 -142 158 -263 184 -77 16 -207 12 -277 -8z m280 -131 c63
-31 97 -78 103 -145 6 -70 -11 -116 -58 -159 -48 -44 -104 -59 -196 -54 -129
6 -209 81 -208 193 2 87 46 144 136 177 68 24 159 19 223 -12z"/>
<path d="M4731 1600 c-24 -5 -68 -23 -98 -40 -60 -34 -80 -34 -85 2 -3 22 -7
23 -88 23 l-85 0 0 -295 0 -295 85 0 85 0 3 195 c2 185 3 195 25 218 75 81
226 93 307 26 52 -44 55 -56 60 -254 l5 -185 85 0 85 0 3 192 c2 173 0 196
-18 247 -26 67 -89 128 -158 150 -62 20 -156 27 -211 16z"/>
<path d="M5482 1595 c-207 -47 -314 -238 -234 -418 76 -172 332 -238 530 -136
41 21 79 36 83 33 5 -3 9 -44 9 -92 0 -109 -18 -147 -82 -180 -36 -18 -64 -24
-129 -25 -102 -2 -168 15 -205 54 -26 27 -33 29 -106 29 -90 0 -103 -11 -68
-60 27 -37 92 -76 173 -102 47 -16 91 -21 182 -22 173 -1 280 31 352 106 62
64 63 71 63 458 l0 351 -87 -3 -88 -3 -3 -28 c-4 -37 -25 -44 -58 -18 -71 56
-221 82 -332 56z m283 -136 c25 -12 58 -38 73 -57 23 -30 27 -45 27 -102 0
-57 -4 -72 -27 -102 -79 -104 -289 -116 -383 -23 -104 105 -47 265 110 306 48
13 149 2 200 -22z"/>
<path d="M6429 1595 c-116 -31 -205 -101 -247 -193 -21 -46 -24 -65 -20 -126
6 -87 30 -136 93 -195 154 -142 440 -145 610 -7 47 39 81 96 72 120 -5 13 -21
16 -81 16 -71 0 -76 -1 -95 -29 -89 -125 -334 -112 -401 20 -36 70 -40 69 307
69 l305 0 -7 48 c-26 179 -184 293 -403 291 -48 0 -108 -7 -133 -14z m246
-129 c58 -27 88 -57 83 -83 -3 -17 -19 -18 -194 -21 -215 -3 -226 1 -176 59
59 71 189 91 287 45z"/>
<path d="M8140 1604 c-52 -10 -147 -48 -187 -76 -49 -33 -107 -112 -99 -134 4
-10 24 -14 77 -14 l72 0 41 44 c50 54 100 69 207 64 88 -4 134 -27 134 -69 0
-37 -53 -57 -214 -79 -216 -30 -280 -52 -322 -112 -31 -44 -31 -113 1 -158 72
-101 333 -122 475 -39 41 24 62 20 67 -13 3 -22 7 -23 88 -23 l85 0 0 220 c0
215 -1 221 -24 262 -28 48 -75 85 -141 108 -44 16 -210 28 -260 19z m239 -441
c-40 -47 -193 -90 -280 -78 -90 12 -128 71 -73 114 26 20 58 28 227 55 55 9
106 20 115 25 15 8 17 2 20 -45 2 -34 -2 -62 -9 -71z"/>
<path d="M6985 1580 c-3 -5 -1 -20 6 -32 39 -73 304 -526 317 -540 22 -26 172
-26 194 0 27 30 320 541 322 559 1 16 -10 18 -84 21 l-85 2 -114 -205 c-76
-135 -120 -205 -131 -205 -11 0 -54 69 -129 205 l-113 205 -88 0 c-49 0 -92
-4 -95 -10z"/>
<path d="M8657 1573 c18 -4 23 -12 26 -51 l3 -47 2 47 c2 35 6 48 20 51 9 3
-3 5 -28 4 -25 0 -35 -2 -23 -4z"/>
<path d="M8741 1528 c1 -47 2 -49 8 -18 l6 35 12 -32 c7 -18 15 -33 18 -33 3
0 11 15 18 33 l12 32 6 -35 c6 -31 7 -29 8 18 1 61 -10 67 -31 15 l-14 -38
-13 38 c-18 53 -31 46 -30 -15z"/>
</g>
</svg>
