<svg version="1.1" id="Layer_1" xmlns="http://www.w3.org/2000/svg" xmlns:xlink="http://www.w3.org/1999/xlink" x="0px" y="0px"
	 width="100%" viewBox="0 0 410 398" enable-background="new 0 0 410 398" xml:space="preserve">
<path fill="#0F0B08" opacity="1.000000" stroke="none" 
	d="
M202.000000,399.000000 
	C134.687347,399.000000 67.874680,399.000000 1.031012,399.000000 
	C1.031012,266.395050 1.031012,133.790100 1.031012,1.092572 
	C137.562622,1.092572 274.125305,1.092572 410.843994,1.092572 
	C410.843994,133.666519 410.843994,266.333252 410.843994,399.000000 
	C341.456818,399.000000 271.978424,399.000000 202.000000,399.000000 
M154.379593,286.792694 
	C161.384979,323.717896 200.809494,341.158264 230.872711,320.437317 
	C244.816742,310.826447 252.055511,297.279175 252.301834,280.221100 
	C252.406891,272.946259 252.319397,265.668701 252.319397,258.002167 
	C260.570526,258.002167 268.050812,258.120789 275.526245,257.980743 
	C301.518463,257.493713 322.760956,236.162949 323.504761,209.903214 
	C324.239014,183.979752 304.251740,161.658340 278.347534,159.806686 
	C271.051544,159.285141 263.695648,159.495453 256.368958,159.562378 
	C253.383194,159.589645 252.207870,158.565186 252.289154,155.498001 
	C252.452393,149.338455 252.417404,143.169510 252.302155,137.007462 
	C251.792908,109.781281 229.868896,88.156799 202.970337,88.286484 
	C175.840942,88.417290 154.063141,110.434898 153.938583,137.878632 
	C153.906921,144.857346 153.933853,151.836304 153.933853,159.216949 
	C151.441437,159.330704 149.315262,159.454346 147.187286,159.520126 
	C139.202652,159.766937 131.062057,159.077408 123.261017,160.398621 
	C97.912498,164.691711 80.893806,187.638748 82.996231,213.664383 
	C84.976067,238.172333 106.684906,257.809906 132.052643,258.002686 
	C139.166702,258.056732 146.281525,258.010925 154.223892,258.010925 
	C154.223892,267.686005 154.223892,276.798370 154.379593,286.792694 
z"/>
<path fill="#AC8856" opacity="1.000000" stroke="none" 
	d="
M154.301743,286.351715 
	C154.223892,276.798370 154.223892,267.686005 154.223892,258.010925 
	C146.281525,258.010925 139.166702,258.056732 132.052643,258.002686 
	C106.684906,257.809906 84.976067,238.172333 82.996231,213.664383 
	C80.893806,187.638748 97.912498,164.691711 123.261017,160.398621 
	C131.062057,159.077408 139.202652,159.766937 147.187286,159.520126 
	C149.315262,159.454346 151.441437,159.330704 153.933853,159.216949 
	C153.933853,151.836304 153.906921,144.857346 153.938583,137.878632 
	C154.063141,110.434898 175.840942,88.417290 202.970337,88.286484 
	C229.868896,88.156799 251.792908,109.781281 252.302155,137.007462 
	C252.417404,143.169510 252.452393,149.338455 252.289154,155.498001 
	C252.207870,158.565186 253.383194,159.589645 256.368958,159.562378 
	C263.695648,159.495453 271.051544,159.285141 278.347534,159.806686 
	C304.251740,161.658340 324.239014,183.979752 323.504761,209.903214 
	C322.760956,236.162949 301.518463,257.493713 275.526245,257.980743 
	C268.050812,258.120789 260.570526,258.002167 252.319397,258.002167 
	C252.319397,265.668701 252.406891,272.946259 252.301834,280.221100 
	C252.055511,297.279175 244.816742,310.826447 230.872711,320.437317 
	C200.809494,341.158264 161.384979,323.717896 154.301743,286.351715 
M310.009552,216.175430 
	C314.016052,191.830856 297.418671,172.289917 272.614807,172.173065 
	C265.282349,172.138519 257.949615,172.166290 250.617004,172.165726 
	C247.173950,172.165451 243.730911,172.165680 239.725296,172.165680 
	C239.725296,169.664841 239.725800,167.871048 239.725220,166.077255 
	C239.722183,156.744843 239.818939,147.411057 239.690842,138.080353 
	C239.522629,125.826195 234.781967,115.626999 224.826584,108.385368 
	C213.052811,99.821014 200.180695,98.443565 187.104233,104.985786 
	C174.108673,111.487549 166.931030,122.360062 166.857025,137.000778 
	C166.681015,171.827927 166.891937,206.657074 166.977188,241.485321 
	C166.979858,242.578018 167.319580,243.669891 167.544601,245.016052 
	C169.304581,245.016052 170.790039,245.014557 172.275497,245.016296 
	C205.604874,245.055115 238.934235,245.117691 272.263611,245.124405 
	C291.452942,245.128281 304.255554,235.509949 310.009552,216.175430 
M102.199333,187.799332 
	C90.177330,206.640472 95.244576,229.424576 113.786980,240.303940 
	C126.492195,247.758453 140.211075,244.410599 153.587296,245.060913 
	C153.587296,220.380753 153.587296,196.490417 153.587296,172.169739 
	C146.381104,172.169739 139.574539,172.091995 132.770386,172.186646 
	C120.335449,172.359573 110.181107,177.195160 102.199333,187.799332 
M166.761398,272.498108 
	C166.770233,275.330353 166.713196,278.164551 166.798691,280.994476 
	C167.327042,298.483826 180.603409,313.571472 197.502747,315.928833 
	C215.497910,318.439056 233.191193,308.326965 237.540619,291.078644 
	C240.164734,280.672424 239.609451,269.464417 240.506226,258.325897 
	C215.130936,258.325897 191.239044,258.325897 166.761368,258.325897 
	C166.761368,262.926422 166.761368,267.215393 166.761398,272.498108 
z"/>
<path fill="#201812" opacity="1.000000" stroke="none" 
	d="
M309.941803,216.586121 
	C304.255554,235.509949 291.452942,245.128281 272.263611,245.124405 
	C238.934235,245.117691 205.604874,245.055115 172.275497,245.016296 
	C170.790039,245.014557 169.304581,245.016052 167.544601,245.016052 
	C167.319580,243.669891 166.979858,242.578018 166.977188,241.485321 
	C166.891937,206.657074 166.681015,171.827927 166.857025,137.000778 
	C166.931030,122.360062 174.108673,111.487549 187.104233,104.985786 
	C200.180695,98.443565 213.052811,99.821014 224.826584,108.385368 
	C234.781967,115.626999 239.522629,125.826195 239.690842,138.080353 
	C239.818939,147.411057 239.722183,156.744843 239.725220,166.077255 
	C239.725800,167.871048 239.725296,169.664841 239.725296,172.165680 
	C243.730911,172.165680 247.173950,172.165451 250.617004,172.165726 
	C257.949615,172.166290 265.282349,172.138519 272.614807,172.173065 
	C297.418671,172.289917 314.016052,191.830856 309.941803,216.586121 
z"/>
<path fill="#211912" opacity="1.000000" stroke="none" 
	d="
M102.421417,187.512421 
	C110.181107,177.195160 120.335449,172.359573 132.770386,172.186646 
	C139.574539,172.091995 146.381104,172.169739 153.587296,172.169739 
	C153.587296,196.490417 153.587296,220.380753 153.587296,245.060913 
	C140.211075,244.410599 126.492195,247.758453 113.786980,240.303940 
	C95.244576,229.424576 90.177330,206.640472 102.421417,187.512421 
z"/>
<path fill="#211912" opacity="1.000000" stroke="none" 
	d="
M166.761383,272.001221 
	C166.761368,267.215393 166.761368,262.926422 166.761368,258.325897 
	C191.239044,258.325897 215.130936,258.325897 240.506226,258.325897 
	C239.609451,269.464417 240.164734,280.672424 237.540619,291.078644 
	C233.191193,308.326965 215.497910,318.439056 197.502747,315.928833 
	C180.603409,313.571472 167.327042,298.483826 166.798691,280.994476 
	C166.713196,278.164551 166.770233,275.330353 166.761383,272.001221 
z"/>
</svg>